<?xml version="1.0" encoding="UTF-8"?>
<!-- Created with Inkscape (http://www.inkscape.org/) -->
<svg width="1024" height="1024" version="1.1" viewBox="0 0 270.93 270.93" xml:space="preserve" xmlns="http://www.w3.org/2000/svg"><defs><filter id="filter11501" x="-.16545" y="-.16588" width="1.337" height="1.3379" color-interpolation-filters="sRGB"><feFlood flood-color="rgb(255,255,255)" in="SourceGraphic" result="flood"/><feGaussianBlur in="SourceGraphic" result="blur" stdDeviation="16.000000"/><feOffset dx="8.000000" dy="8.000000" in="blur" result="offset"/><feComposite in="flood" in2="offset" operator="out" result="comp1"/><feComposite in="comp1" in2="SourceGraphic" operator="atop" result="fbSourceGraphic"/><feColorMatrix in="fbSourceGraphic" result="fbSourceGraphicAlpha" values="0 0 0 -1 0 0 0 0 -1 0 0 0 0 -1 0 0 0 0 1 0"/><feFlood flood-color="rgb(94,26,0)" flood-opacity=".67451" in="fbSourceGraphic" result="flood"/><feGaussianBlur in="fbSourceGraphic" result="blur" stdDeviation="16.000000"/><feOffset dx="-8.000000" dy="-8.000000" in="blur" result="offset"/><feComposite in="flood" in2="offset" operator="out" result="comp1"/><feComposite in="comp1" in2="fbSourceGraphic" operator="atop" result="fbSourceGraphic"/><feColorMatrix in="fbSourceGraphic" result="fbSourceGraphicAlpha" values="0 0 0 -1 0 0 0 0 -1 0 0 0 0 -1 0 0 0 0 1 0"/><feFlood flood-color="rgb(255,246,238)" flood-opacity=".58039" in="fbSourceGraphic" result="flood"/><feGaussianBlur in="fbSourceGraphic" result="blur" stdDeviation="4.000000"/><feOffset dx="8.000000" dy="8.000000" in="blur" result="offset"/><feComposite in="flood" in2="offset" operator="in" result="comp1"/><feComposite in="fbSourceGraphic" in2="comp1" result="fbSourceGraphic"/><feColorMatrix in="fbSourceGraphic" result="fbSourceGraphicAlpha" values="0 0 0 -1 0 0 0 0 -1 0 0 0 0 -1 0 0 0 0 1 0"/><feFlood flood-color="rgb(145,126,105)" flood-opacity=".29804" in="fbSourceGraphic" result="flood"/><feGaussianBlur in="fbSourceGraphic" result="blur" stdDeviation="4.000000"/><feOffset dx="-4" dy="-4" in="blur" result="offset"/><feComposite in="flood" in2="offset" operator="in" result="comp1"/><feComposite in="fbSourceGraphic" in2="comp1" result="comp2"/></filter></defs><g id="strokes" transform="matrix(.28066 0 0 .28066 -7.9349 -9.3452)"><rect x="28.272" y="33.297" width="965.33" height="965.33" fill="#ece0d5" style="paint-order:stroke fill markers"/><path d="m358.72 479.87-8.7115 2.3602-8.7115 2.3611-8.7115 2.3602-8.7115 2.3611-8.7106 2.3602-8.7115 2.3611-8.7115 2.3602-8.7116 2.3611-8.7115 2.3602-8.7115 2.3611-8.7115 2.3602-8.7115 2.3611-8.7115 2.3602-8.7106 2.3611-8.7115 2.3602-8.7115 2.3611-8.3171 2.2537-7.7359 3.5083-6.6961 6.1447-4.8215 7.6294-0.57764 0.9152-3.1093 8.4733-0.78613 2.1427-1.6192 8.8785-0.62096 3.4009-0.33485 9.0193-0.16517 4.4524 0.80057 8.9904 0.45941 5.1554 1.8385 8.8361 1.1318 5.4398 2.8259 8.5716 1.7419 5.2863 3.7998 8.1872 2.1896 4.7195 4.7926 7.6483 2.3882 3.8124 5.8278 6.8911 2.2681 2.6824 6.9073 5.8098 1.7925 1.5082 7.9651 4.2457 1.0055 0.53612 8.7919 2.038 0.10289 0.0235 8.4787-0.7374 8.7115-2.3602 8.7115-2.3611 8.7115-2.3602 8.7115-2.3611 8.7116-2.3602 8.7106-2.3611 8.7116-2.3602 8.7115-2.3611 8.7115-2.3602 8.7115-2.3611 8.7115-2.3602 8.7115-2.3611 8.7115-2.3602 8.7116-2.3611 8.7115-2.3602 8.7115-2.3611 8.7106-2.3602 7.503-2.0335-2.3358 8.7188-2.3358 8.7179-2.3358 8.7178-2.3367 8.7179-2.3358 8.7188-4.6717 17.436-2.3358 8.7179-2.3367 8.7188-4.6717 17.436-2.3358 8.7179-2.3358 8.7188-2.3367 8.7178-2.3358 8.7179-2.3358 8.7188-2.3358 8.7179-1.5876 5.9226-0.80418 8.5464 1.9631 8.8099 0.0334 0.14982 4.1825 7.9985 0.53973 1.0316 5.7647 6.9443 1.501 1.8078 6.864 5.8622 2.6662 2.2772 7.633 4.817 3.7962 2.3954 8.1799 3.8142 4.7069 2.195 13.852 4.5742 14.283 2.964 8.9913 0.78704 5.1735 0.45309 13.504-0.53252 8.874-1.6445 3.4487-0.63901 8.4652-3.131 2.2032-0.81592 7.6212-4.835 0.98379-0.62368 6.1049-6.6474 0.1047-0.11373 3.575-7.8036 2.3367-8.7179 2.3358-8.7179 2.3358-8.7188 4.6717-17.436 2.3367-8.7188 2.3358-8.7179 4.6717-17.436 2.3358-8.7188 2.3367-8.7179 4.6717-17.436 2.3358-8.7188 2.3358-8.7179 2.3367-8.7179 2.3358-8.7179 1.5867-5.9235 44.548 44.801 6.3649 6.4001 12.728 12.8 6.364 6.401 38.184 38.4 5.4804 5.512 6.9741 4.8774 8.6339 2.6319 0.10109 0.0307 9.0202 0.30507 1.139 0.0388 8.8866-1.5786 2.307-0.40977 8.4931-3.0543 3.3043-1.1878 11.949-6.3351 7.3839-5.1906 4.2565-2.9929 6.7331-6.0102 4.1518-3.7068 6.0102-6.7331 3.7005-4.1446 5.1879-7.3857 2.9758-4.2348 4.2195-7.9787 2.0831-3.9388 3.0371-8.4994 1.1625-3.2546 1.5452-8.893 0.38991-2.2483-0.36012-9.0184-0.0433-1.0813-2.7266-8.6691-4.946-6.9064-44.548-44.801-6.364-6.401-57.276-57.601-6.0752-6.1104 8.7106-2.3602 8.7115-2.3611 8.7115-2.3602 8.7115-2.3611 8.7116-2.3602 17.423-4.7222 8.7115-2.3602 8.7115-2.3611 8.7106-2.3602 8.7115-2.3611 8.7115-2.3602 8.7115-2.3611 8.7115-2.3602 8.7116-2.3611 8.7115-2.3602 8.7115-2.3611 8.3162-2.2537 7.7368-3.5083 6.6961-6.1446 4.8215-7.6294 0.57764-0.9143 3.1084-8.4742 0.78613-2.1427 1.6201-8.8785 0.62006-3.4009 0.33486-9.0193 0.16516-4.4524-0.80057-8.9895-0.4594-5.1554-1.8385-8.837-1.1318-5.4398-2.8259-8.5716-1.7419-5.2863-3.7989-8.1862-2.1905-4.7204-4.7917-7.6483-2.3882-3.8124-5.8288-6.8911-2.2672-2.6815-6.9073-5.8098-1.7934-1.5091-7.9642-4.2457-1.0054-0.53612-8.7928-2.038-0.1029-0.0235-8.4787 0.7374-8.7115 2.3602-8.7106 2.3611-8.7115 2.3602-8.7115 2.3611-8.7115 2.3602-8.7115 2.3611-8.7115 2.3602-8.7116 2.3611-8.7115 2.3602-8.7115 2.3611-17.423 4.7204-8.7106 2.3611-8.7115 2.3602-8.7115 2.3611-8.7115 2.3602-8.7115 2.3611-7.5021 2.0326 2.3358-8.7178 2.3358-8.7179 2.3358-8.7188 2.3367-8.7178 4.6717-17.436 2.3358-8.7188 2.3358-8.7178 2.3358-8.7179 2.3367-8.7188 7.0075-26.154 2.3358-8.7188 2.3358-8.7178 2.3367-8.7179 2.3358-8.7179 1.5867-5.9226 0.80509-8.5464-1.964-8.809-0.0334-0.15073-4.1825-7.9985-0.53973-1.0316-5.7647-6.9443-1.501-1.8078-6.8631-5.8612-2.6671-2.2781-7.633-4.817-3.7953-2.3954-8.1799-3.8142-4.7078-2.1941-8.5707-2.8304-5.2809-1.7446-14.282-2.964-8.9913-0.78704-5.1744-0.45308-13.503 0.53251-12.324 2.2835-8.4642 3.131-2.2041 0.81591-7.6212 4.835-0.98289 0.62367-6.1049 6.6474-0.10469 0.11372-3.576 7.8036-2.3358 8.7179-2.3358 8.7188-2.3367 8.7179-4.6717 17.436-2.3358 8.7188-2.3358 8.7179-2.3367 8.7179-2.3358 8.7179-2.3358 8.7188-7.0075 26.154-2.3367 8.7188-2.3358 8.7179-4.6717 17.436-1.5876 5.9226-89.096-89.601-6.3649-6.4001-12.728-12.8-5.4804-5.512-6.9741-4.8774-8.6339-2.631-0.10018-0.0307-9.0211-0.30597-1.1381-0.0379-8.8866 1.5777-2.307 0.40976-11.798 4.243-7.9742 4.2276-3.9749 2.1066-7.383 5.1906-4.2574 2.9929-6.7322 6.0111-4.1518 3.7059-6.0111 6.7331-3.7005 4.1455-5.1879 7.3848-2.9748 4.2357-4.2204 7.9778-2.0831 3.9388-3.0362 8.4994-1.1634 3.2556-1.5443 8.892-0.39081 2.2483 0.36012 9.0184 0.0433 1.0813 2.7275 8.6691 4.9452 6.9064 25.456 25.6 6.364 6.401 82.444 82.911z" fill="#ff5400" filter="url(#filter11501)" stroke="#000" stroke-linecap="round" stroke-linejoin="round" stroke-width="2.8281" style="paint-order:stroke fill markers"/><path d="m360.72 481.87-8.7115 2.3602-8.7115 2.3611-8.7115 2.3602-8.7115 2.3611-8.7106 2.3602-8.7115 2.3612-8.7115 2.3602-8.7116 2.3611-8.7115 2.3602-8.7115 2.3611-8.7115 2.3602-8.7115 2.3611-8.7115 2.3602-8.7106 2.3611-8.7115 2.3602-8.7115 2.3611-8.3171 2.2537-7.7359 3.5083-6.6961 6.1446-4.8215 7.6294-0.57764 0.9152-3.1093 8.4732-0.78613 2.1427-1.6192 8.8785-0.62096 3.4009-0.33485 9.0193-0.16517 4.4524 0.80057 8.9904 0.45941 5.1554 1.8385 8.8361 1.1318 5.4398 2.8259 8.5716 1.7419 5.2863 3.7998 8.1872 2.1896 4.7195 4.7926 7.6483 2.3882 3.8124 5.8278 6.8911 2.2681 2.6824 6.9073 5.8098 1.7925 1.5082 7.9651 4.2457 1.0055 0.5361 8.7919 2.038 0.10289 0.024 8.4787-0.7374 8.7115-2.3602 8.7115-2.3611 8.7115-2.3602 8.7115-2.3611 8.7116-2.3602 8.7106-2.3611 8.7116-2.3602 8.7115-2.3611 8.7115-2.3603 8.7115-2.3611 8.7115-2.3602 8.7115-2.3611 8.7115-2.3602 8.7116-2.3611 8.7115-2.3602 8.7115-2.3611 8.7106-2.3602 7.503-2.0335-2.3358 8.7188-2.3358 8.7179-2.3358 8.7178-2.3367 8.7179-2.3358 8.7187-4.6717 17.436-2.3358 8.7178-2.3367 8.7188-2.3358 8.7178-2.3358 8.7179-2.3358 8.7179-2.3358 8.7187-2.3367 8.7179-2.3358 8.7178-2.3358 8.7188-2.3358 8.7179-1.5876 5.9226-0.80418 8.5464 1.9631 8.8099 0.0334 0.1498 4.1825 7.9985 0.53973 1.0316 5.7647 6.9444 1.501 1.8078 6.864 5.8622 2.6662 2.2771 7.633 4.817 3.7962 2.3954 8.1799 3.8142 4.7069 2.1951 13.852 4.5742 14.283 2.964 8.9913 0.787 5.1735 0.4531 13.504-0.5325 8.874-1.6445 3.4487-0.639 8.4652-3.131 2.2032-0.8159 7.6212-4.835 0.98379-0.6237 6.1049-6.6474 0.1047-0.1137 3.575-7.8036 2.3367-8.7178 2.3358-8.7179 2.3358-8.7188 2.3358-8.7178 2.3358-8.7179 2.3367-8.7187 2.3358-8.7179 2.3358-8.7179 2.3358-8.7178 2.3358-8.7188 2.3367-8.7178 4.6717-17.436 2.3358-8.7187 2.3358-8.7179 2.3367-8.7178 2.3358-8.7179 1.5867-5.9235 12.728 12.8 31.82 32 6.3649 6.4001 12.728 12.8 6.364 6.4009 38.184 38.4 5.4804 5.5119 6.9741 4.8775 8.6339 2.6319 0.10109 0.031 9.0202 0.305 1.139 0.039 11.194-1.9883 8.4931-3.0543 3.3043-1.1878 11.949-6.335 7.3839-5.1907 4.2565-2.9929 6.7331-6.0102 4.1518-3.7068 6.0102-6.7331 3.7005-4.1446 5.1879-7.3857 2.9758-4.2348 4.2195-7.9786 2.0831-3.9388 3.0371-8.4995 1.1625-3.2546 1.5452-8.893 0.38991-2.2482-0.36012-9.0185-0.0433-1.0812-2.7266-8.6692-4.946-6.9064-6.364-6.4-38.184-38.4-6.364-6.401-12.728-12.8-44.548-44.801-6.0752-6.1103 8.7106-2.3602 8.7115-2.3611 8.7115-2.3602 8.7115-2.3611 8.7116-2.3602 8.7115-2.3612 8.7115-2.3611 8.7115-2.3602 8.7115-2.3611 8.7106-2.3602 8.7115-2.3611 8.7115-2.3602 8.7115-2.3611 8.7115-2.3602 8.7116-2.3611 8.7115-2.3602 8.7115-2.3611 8.3162-2.2537 7.7368-3.5083 6.6961-6.1446 4.8215-7.6294 0.57764-0.9143 3.1084-8.4742 0.78613-2.1426 1.6201-8.8786 0.62006-3.4008 0.33486-9.0193 0.16516-4.4524-0.80057-8.9895-0.4594-5.1554-1.8385-8.837-1.1318-5.4398-2.8259-8.5716-1.7419-5.2863-5.9894-12.907-4.7917-7.6483-2.3882-3.8125-5.8288-6.891-2.2672-2.6815-6.9073-5.8098-1.7934-1.5091-7.9642-4.2457-1.0054-0.5361-8.7928-2.038-0.1029-0.024-8.4787 0.7374-8.7115 2.3602-8.7106 2.3611-8.7115 2.3602-8.7115 2.3611-8.7115 2.3602-8.7115 2.3611-8.7115 2.3602-8.7116 2.3611-8.7115 2.3602-8.7115 2.3611-8.7115 2.3603-8.7115 2.3602-8.7106 2.3611-8.7115 2.3602-8.7115 2.3611-8.7115 2.3602-8.7115 2.3611-7.5021 2.0325 4.6717-17.436 2.3358-8.7187 2.3367-8.7179 4.6717-17.436 2.3358-8.7188 4.6717-17.436 2.3367-8.7188 2.3358-8.7178 2.3358-8.7179 2.3358-8.7178 2.3358-8.7188 2.3358-8.7178 2.3367-8.7179 2.3358-8.7179 1.5867-5.9226 0.80509-8.5464-1.964-8.809-0.0334-0.1507-4.1825-7.9985-0.53973-1.0317-5.7647-6.9443-1.501-1.8078-6.8631-5.8613-2.6671-2.278-7.633-4.817-3.7953-2.3954-8.1799-3.8142-4.7078-2.1942-8.5707-2.8304-5.2809-1.7447-14.282-2.964-8.9913-0.787-5.1744-0.4531-13.503 0.5325-8.8749 1.6445-3.4487 0.639-8.4642 3.131-2.2041 0.8159-7.6212 4.835-0.98289 0.6237-6.1049 6.6474-0.10469 0.1137-3.576 7.8036-2.3358 8.7178-2.3358 8.7188-2.3367 8.7178-4.6717 17.436-2.3358 8.7187-2.3358 8.7179-2.3367 8.7178-2.3358 8.7179-2.3358 8.7188-2.3358 8.7178-2.3358 8.7179-2.3358 8.7178-2.3367 8.7188-2.3358 8.7179-2.3358 8.7178-2.3358 8.7179-1.5876 5.9226-12.728-12.8-76.368-76.801-6.3649-6.4-12.728-12.8-5.4804-5.512-6.9741-4.8774-8.6339-2.631-0.10018-0.031-9.0211-0.3059-1.1381-0.038-8.8866 1.5776-2.307 0.4098-11.798 4.2429-7.9742 4.2277-3.9749 2.1065-7.383 5.1907-4.2574 2.9929-6.7322 6.011-4.1518 3.706-6.0111 6.7331-3.7005 4.1455-5.1879 7.3847-2.9748 4.2358-4.2204 7.9777-2.0831 3.9388-3.0362 8.4995-1.1634 3.2555-1.5443 8.8921-0.39081 2.2482 0.36012 9.0185 0.0433 1.0812 2.7275 8.6691 4.9452 6.9065 6.364 6.4 19.092 19.2 6.364 6.4009 82.444 82.911z" fill="none" stroke="#000" stroke-linecap="round" stroke-linejoin="round" stroke-width="7.5417" style="paint-order:stroke fill markers"/></g></svg>
